<svg width="20" height="20" viewBox="0 0 20 20" fill="none" xmlns="http://www.w3.org/2000/svg">
<path d="M6.59636 9.89375C6.59636 8.07243 8.07243 6.59557 9.89375 6.59557C11.7151 6.59557 13.1919 8.07243 13.1919 9.89375C13.1919 11.7151 11.7151 13.1919 9.89375 13.1919C8.07243 13.1919 6.59636 11.7151 6.59636 9.89375ZM4.81343 9.89375C4.81343 12.6996 7.08788 14.9741 9.89375 14.9741C12.6996 14.9741 14.9741 12.6996 14.9741 9.89375C14.9741 7.08788 12.6996 4.81343 9.89375 4.81343C7.08788 4.81343 4.81351 7.08772 4.81351 9.89375M13.988 4.61199C13.9879 4.84681 14.0575 5.07638 14.1878 5.27167C14.3182 5.46697 14.5036 5.61921 14.7205 5.70916C14.9374 5.79911 15.1761 5.82271 15.4064 5.777C15.6368 5.73128 15.8483 5.61829 16.0144 5.45231C16.1806 5.28634 16.2937 5.07484 16.3396 4.84455C16.3855 4.61427 16.3621 4.37554 16.2723 4.15856C16.1826 3.94159 16.0305 3.7561 15.8353 3.62557C15.6401 3.49503 15.4106 3.42531 15.1757 3.42522H15.1753C14.8605 3.42536 14.5587 3.55043 14.3361 3.77295C14.1135 3.99547 13.9883 4.29724 13.988 4.61199ZM5.89668 17.9471C4.93207 17.9032 4.40778 17.7425 4.05937 17.6068C3.59745 17.4269 3.26787 17.2128 2.92135 16.8667C2.57483 16.5207 2.36033 16.1914 2.18129 15.7295C2.04547 15.3812 1.8848 14.8568 1.84095 13.8922C1.79298 12.8493 1.78341 12.536 1.78341 9.89391C1.78341 7.2518 1.79378 6.9394 1.84095 5.89565C1.88488 4.93105 2.04674 4.40763 2.18129 4.05834C2.36112 3.59642 2.5753 3.26684 2.92135 2.92032C3.26739 2.5738 3.59666 2.3593 4.05937 2.18027C4.40763 2.04444 4.93207 1.88377 5.89668 1.83992C6.93956 1.79196 7.25283 1.78238 9.89375 1.78238C12.5347 1.78238 12.8483 1.79259 13.892 1.84008C14.8566 1.88401 15.38 2.04587 15.7293 2.18042C16.1912 2.35946 16.5208 2.57443 16.8673 2.92048C17.2139 3.26652 17.4276 3.59658 17.6074 4.0585C17.7432 4.40676 17.9039 4.9312 17.9477 5.8958C17.9957 6.93956 18.0053 7.25196 18.0053 9.89407C18.0053 12.5362 17.9957 12.8486 17.9477 13.8923C17.9038 14.8569 17.7423 15.3812 17.6074 15.7296C17.4276 16.1916 17.2134 16.5211 16.8673 16.8669C16.5213 17.2126 16.1912 17.4271 15.7293 17.6069C15.3811 17.7427 14.8566 17.9034 13.892 17.9473C12.8491 17.9952 12.5359 18.0048 9.89375 18.0048C7.25164 18.0048 6.93924 17.9952 5.89668 17.9473M5.81476 0.0599166C4.76151 0.107882 4.0418 0.274888 3.41326 0.519462C2.76273 0.772029 2.21129 1.11087 1.66065 1.66065C1.11 2.21042 0.772029 2.76194 0.519462 3.41326C0.274888 4.04219 0.107882 4.76151 0.0599166 5.81476C0.0111602 6.86967 0 7.20692 0 9.89375C0 12.5806 0.0111602 12.9178 0.0599166 13.9727C0.107882 15.0261 0.274888 15.7453 0.519462 16.3742C0.772029 17.0248 1.11008 17.5773 1.66065 18.1269C2.21121 18.6764 2.76194 19.0148 3.41326 19.268C4.04298 19.5126 4.76151 19.6796 5.81476 19.7276C6.87022 19.7755 7.20692 19.7875 9.89375 19.7875C12.5806 19.7875 12.9178 19.7763 13.9727 19.7276C15.0261 19.6796 15.7453 19.5126 16.3742 19.268C17.0248 19.0148 17.5762 18.6766 18.1269 18.1269C18.6775 17.5771 19.0148 17.0248 19.268 16.3742C19.5126 15.7453 19.6804 15.026 19.7276 13.9727C19.7755 12.917 19.7867 12.5806 19.7867 9.89375C19.7867 7.20692 19.7755 6.86967 19.7276 5.81476C19.6796 4.76143 19.5126 4.0418 19.268 3.41326C19.0148 2.76273 18.6766 2.21129 18.1269 1.66065C17.5771 1.11 17.0248 0.772029 16.375 0.519462C15.7453 0.274888 15.026 0.10709 13.9735 0.0599166C12.9185 0.0117143 12.5814 0 9.89494 0C7.20851 0 6.87062 0.0111602 5.81515 0.0599166" fill="white"/>
</svg>
